<?xml version="1.0" encoding="utf-8"?>
<!-- Generator: Adobe Illustrator 18.0.0, SVG Export Plug-In . SVG Version: 6.00 Build 0)  -->
<!DOCTYPE svg PUBLIC "-//W3C//DTD SVG 1.1//EN" "http://www.w3.org/Graphics/SVG/1.1/DTD/svg11.dtd">
<svg version="1.1" id="Layer_1" xmlns="http://www.w3.org/2000/svg" xmlns:xlink="http://www.w3.org/1999/xlink" width="32" height="32" x="0px" y="0px"
	 viewBox="3.1 3.1 94.7 94.7" enable-background="new 3.1 3.1 94.7 94.7" xml:space="preserve">
<g id="Adobe" display="none">
	<g id="Ebene_1_1_" display="inline">
		<polygon points="123,103 85.2,140.8 17,72.6 45.5,25.5 		"/>
		<polygon points="148.1,97.5 111.5,134.1 32.4,55 70,19.4 		"/>
		<text transform="matrix(1 0 0 1 20.2715 72.3789)" font-family="'HelveticaNeue-Bold'" font-size="65.6273">Fl</text>
		<g>
			<path d="M91,9v82H9V9H91 M95,5H5v90h90V5L95,5z"/>
		</g>
	</g>
	<g id="Ebene_5" display="inline">
		<path d="M53,62.8c0.7,1,1.5,1.9,2.6,2.5s2.3,1,3.7,1c1.5,0,2.8-0.3,3.8-0.9c1-0.6,1.8-1.4,2.5-2.5c0.6-1,1-2.2,1.3-3.5
			c0.3-1.3,0.4-2.7,0.4-4.1c0-1.4-0.1-2.7-0.4-4c-0.3-1.3-0.7-2.4-1.3-3.4c-0.6-1-1.5-1.8-2.5-2.4c-1-0.6-2.3-0.9-3.8-0.9
			c-1.5,0-2.8,0.3-3.9,0.9c-1,0.6-1.9,1.4-2.5,2.4c-0.6,1-1.1,2.2-1.4,3.4c-0.3,1.3-0.4,2.6-0.4,4c0,1.3,0.2,2.6,0.5,3.9
			C51.8,60.6,52.3,61.8,53,62.8z M95,5v90H5V5H95z M91,9H9v82h34.4L24.9,72.5l0-0.1h10.2V25.9L49,39.7c-1.3,0.9-2.5,1.9-3.5,3.2
			c-1.2,1.6-2.2,3.5-2.8,5.6c-0.6,2.1-1,4.3-1,6.6c0,2.4,0.3,4.6,1,6.8c0.6,2.2,1.6,4.1,2.8,5.8c1.2,1.7,2.8,3,4.8,4
			c1.9,1,4.2,1.5,6.7,1.5c2.2,0,4.2-0.4,6-1.2c1.8-0.8,3.2-2.1,4.3-4h0.1v4.3h8.9V25.6L91,40.4V9z M76.3,73.8L76.3,73.8L76.3,73.8
			L76.3,73.8L76.3,73.8z"/>
	</g>
	<g id="Ebene_4" display="inline">
		<path d="M41.5,36.9c0.5,0.9,0.8,2.1,0.8,3.6c0,1.5-0.3,2.7-0.8,3.6s-1.2,1.6-2,2.1c-0.8,0.5-1.8,0.8-2.9,1
			c-1.1,0.2-2.2,0.3-3.4,0.3h-8v-14h8c1.2,0,2.3,0.1,3.4,0.3c1.1,0.2,2.1,0.5,2.9,1C40.3,35.3,41,36,41.5,36.9z M95,5v90H5V5H95z
			 M91,9H9v82h24.4L14.9,72.6l0.1-0.2h10.1V55.6H36c2.9,0,5.4-0.4,7.5-1.3c2-0.8,3.7-2,5-3.4c1.3-1.4,2.2-3,2.8-4.8
			c0.6-1.8,0.9-3.7,0.9-5.5c0-1.9-0.3-3.8-0.9-5.6c-0.5-1.6-1.4-3-2.5-4.4l0.1-0.1l10.6,10.6c-0.6,0.5-1.1,1.2-1.5,1.9
			c-0.9,1.4-1.3,3.2-1.3,5.4c0,1.5,0.3,2.8,0.9,3.8s1.4,1.9,2.4,2.6c1,0.7,2.1,1.2,3.4,1.6c1.3,0.4,2.6,0.8,4,1.1
			c3.3,0.7,5.9,1.4,7.8,2.1c1.9,0.7,2.8,1.8,2.8,3.1c0,0.8-0.2,1.5-0.6,2.1c-0.4,0.6-0.9,1-1.5,1.3c-0.6,0.3-1.2,0.6-2,0.7
			c-0.7,0.2-1.4,0.2-2.1,0.2c-0.9,0-1.8-0.1-2.7-0.3c-0.9-0.2-1.6-0.6-2.3-1c-0.6-0.5-1.2-1.1-1.6-1.8c-0.4-0.7-0.6-1.6-0.6-2.6H56
			c0.1,2.3,0.6,4.2,1.5,5.7c0.9,1.5,2.2,2.7,3.6,3.6c1.5,0.9,3.1,1.6,5,2c1.9,0.4,3.8,0.6,5.8,0.6c1.9,0,3.8-0.2,5.7-0.6
			c1.9-0.4,3.5-1,4.9-1.9c1.4-0.9,2.6-2.1,3.5-3.6c0.9-1.5,1.4-3.4,1.4-5.6c0-1.6-0.3-2.9-0.9-4c-0.6-1.1-1.4-2-2.4-2.7
			c-1-0.7-2.1-1.3-3.4-1.7c-1.3-0.4-2.6-0.8-4-1.1c-1.3-0.3-2.6-0.6-3.9-0.9c-1.3-0.3-2.4-0.6-3.4-0.9c-1-0.3-1.8-0.8-2.4-1.3
			s-0.9-1.2-0.9-2c0-0.7,0.2-1.3,0.5-1.7c0.3-0.4,0.8-0.7,1.3-1c0.5-0.2,1.1-0.4,1.7-0.4c0.6-0.1,1.2-0.1,1.7-0.1
			c1.7,0,3.1,0.3,4.3,1c1.2,0.6,1.9,1.8,2,3.6h8.9c-0.2-2.1-0.7-3.8-1.6-5.2c-0.6-0.9-1.3-1.7-2.2-2.4l0.3,0l7.9,7.9V9z"/>
	</g>
	<g id="Ebene_2" display="inline">
		<path d="M45.8,54.3H33.7l6.1-17.2h0.1L45.8,54.3z M95,5v90H5V5H95z M91,9H9v82h26.4L17,72.6l0.1-0.2h10.2L31,61.9h17.5l3.5,10.4
			h10.7L45.3,25.8l0.1-0.2l20.6,20.6l0,0v26.3h9.3V38.5h-4.1l-5.3-5.3l0.1-0.1v0.1h9.3v-7.6l0.3-0.2L91,40.7V9z"/>
	</g>
	<g id="Ebene_3" display="inline">
		<g>
			<path d="M9,9v82h26.4L17,72.6l0.1-0.2h10.2L31,61.9h17.5l3.5,10.4h10.7L45.3,25.8l0.1-0.2l20.6,20.6l0,0v26.3h9.3V38.5h-4.1
				l-5.3-5.3l0.1-0.1v0.1h9.3v-7.6l0.3-0.2L91,40.7V9H9z M45.8,54.3H33.7l6.1-17.2h0.1L45.8,54.3z"/>
		</g>
	</g>
	<path display="inline" d="M97.7,62c0,0,0,0.1,0,0.1v1.7c0,4.9-3.9,8.8-8.8,8.8H54.7v-9.3h10.9L50,45.7L34.4,63.2h10.9v9.3H11.1
		c-4.9,0-8.8-3.9-8.8-8.8v-1.7c0-0.5,0-0.9,0.1-1.4c-0.1-0.6-0.1-1.2-0.1-1.9c0-8.7,7.1-15.8,15.8-15.8c0.8,0,1.5,0.1,2.3,0.2
		c2.3-9.5,12-15.8,22.3-15.8c9.3,0,17.3,5.4,21.2,13.2c1.8-0.6,3.7-1,5.7-1c6.7,0,12.5,3.8,15.4,9.3c7.1,0,12.8,5.7,12.8,12.8
		C97.7,61.9,97.7,61.9,97.7,62z"/>
</g>
<g id="Ebene_2_1_" display="none">
	<g display="inline">
		<g>
			<path d="M65.9,14v30.6H35.3V14H65.9z M20,95.6V3.8h61.2v81.6h-5.1v5.1H71v5.1H20z M65.9,70.1h-5.1v5.1h5.1V70.1z M25.1,70.1h5.1
				v5.1h5.1v-5.1h5.1V65h-5.1v-5.1h-5.1V65h-5.1V70.1z M76.1,59.9H71V65h5.1V59.9z M76.1,8.9h-51v40.8H71v-5.1h5.1V8.9z"/>
		</g>
	</g>
</g>
<g id="Ebene_3_1_" display="none">
	<path display="inline" d="M89.1,33v-5.5h-5.5V22v-5.5h-5.5v-5.5h-5.5h-5.5V5.4h-5.5h-5.5h-5.5h-5.5h-5.5H34v5.5h-5.5H23v5.5h-5.5
		V22v5.5H12V33H6.5v5.5V44v5.5V55v5.5V66v5.5H12h5.5V77v5.5v5.5H23v5.5h5.5H34h5.5h5.5h5.5h5.5h5.5h5.5h5.5h5.5v-5.5h5.5v-5.5V77
		v-5.5h5.5h5.5V66v-5.5V55v-5.5V44v-5.5V33C94.6,33,89.1,33,89.1,33z M61.6,10.9v5.5h5.5h5.5V22v5.5h-5.5h-5.5V22h-5.5v-5.5v-5.5
		C56.1,10.9,61.6,10.9,61.6,10.9z M34,55v-5.5V44v-5.5h5.5V33h5.5h5.5h5.5h5.5v5.5h5.5V44v5.5V55h-5.5v5.5h-5.5h-5.5h-5.5h-5.5V55
		H34z M28.5,16.4H34h5.5v-5.5h5.5v5.5V22h-5.5v5.5H34h-5.5V22V16.4z M12,49.5V44v-5.5h5.5V33H23h5.5v5.5V44v5.5H23V55h-5.5H12
		C12,55,12,49.5,12,49.5z M78.1,77v5.5h-5.5v5.5h-5.5h-5.5h-5.5h-5.5h-5.5h-5.5H34h-5.5v-5.5H23V77v-5.5h5.5V66H34h5.5v5.5V77h5.5
		v-5.5V66h5.5h5.5v5.5V77h5.5v-5.5V66h5.5h5.5v5.5h5.5L78.1,77L78.1,77z M89.1,44v5.5V55h-5.5h-5.5v-5.5h-5.5V44v-5.5V33h5.5h5.5
		v5.5h5.5V44z"/>
</g>
<g id="Ebene_4_1_" display="none">
	<path display="inline" d="M89.1,33v-5.5h-5.5V22v-5.5h-5.5v-5.5h-5.5h-5.5V5.4h-5.5h-5.5h-5.5h-5.5h-5.5H34v5.5h-5.5H23v5.5h-5.5
		V22v5.5H12V33H6.5v5.5V44v5.5V55v5.5V66v5.5H12h5.5V77v5.5v5.5H23v5.5h5.5H34h5.5h5.5h5.5h5.5h5.5h5.5h5.5h5.5v-5.5h5.5v-5.5V77
		v-5.5h5.5h5.5V66v-5.5V55v-5.5V44v-5.5V33C94.6,33,89.1,33,89.1,33z M78.1,77v5.5h-5.5v5.5h-5.5h-5.5h-5.5h-5.5h-5.5h-5.5H34h-5.5
		v-5.5H23V77v-5.5h5.5V66H34h5.5v5.5V77h5.5v-5.5V66h5.5h5.5v5.5V77h5.5v-5.5V66h5.5h5.5v5.5h5.5L78.1,77L78.1,77z M89.1,60.5V66
		h-5.5h-5.5v-5.5h-5.5h-5.5h-5.5V55h5.5v-5.5V44v-5.5h-5.5V33h-5.5h-5.5h-5.5h-5.5v5.5H34V44v5.5V55h5.5v5.5H34h-5.5H23V66h-5.5H12
		v-5.5V55h5.5H23v-5.5h5.5V44v-5.5V33H23v-5.5V22h5.5v5.5H34h5.5V22h5.5v-5.5v-5.5h5.5h5.5v5.5V22h5.5v5.5h5.5h5.5V22h5.5v5.5V33
		h-5.5v5.5V44v5.5h5.5V55h5.5h5.5L89.1,60.5L89.1,60.5z"/>
</g>
<g id="Ebene_5_1_" display="none">
	<path display="inline" d="M22.2,11.1h-5.6V5.5h5.6h5.6h5.6h5.6h5.6H50h5.6h5.6h5.6v5.6h-5.6h-5.6H50h-5.6h-5.6h-5.6h-5.6H22.2z
		 M72.2,16.6v-5.6h-5.6v5.6H72.2z M88.9,27.8v5.6v5.6v5.6V50v5.6v5.6v5.6h-5.6v5.6h-5.6v-5.6v-5.6h5.6v-5.6V50v-5.6v-5.6v-5.6h-5.6
		v-5.6h5.6H88.9v-5.6h-5.6h-5.6v-5.6h-5.6v5.6v5.6v5.6v5.6v5.6V50v5.6v5.6v5.6v5.6h-5.6v5.6v5.6h5.6v-5.6h5.6h5.6h5.6v-5.6h5.6v-5.6
		v-5.6v-5.6V50v-5.6v-5.6v-5.6v-5.6H88.9z M61.1,88.9h-5.6H50h-5.6h-5.6h-5.6h-5.6h-5.6v-5.6h-5.6v5.6v5.6h5.6h5.6h5.6h5.6h5.6H50
		h5.6h5.6h5.6v-5.6v-5.6h-5.6L61.1,88.9L61.1,88.9z M16.6,72.2h-5.6v5.6v5.6h5.6v-5.6V72.2z M11.1,61.1v-5.6V50v-5.6v-5.6v-5.6v-5.6
		v-5.6v-5.6H5.5v5.6v5.6v5.6v5.6v5.6V50v5.6v5.6v5.6v5.6h5.6v-5.6V61.1z M16.6,11.1h-5.6v5.6h5.6V11.1z M66.4,28.5v-5.6h-5.6v-5.6
		h-5.6h-5.6h-5.6h-5.6h-5.6h-5.6h-5.6v5.6h-5.6v5.6v5.6h5.6v5.6h5.6h5.6h5.6h5.6h5.6h5.6h5.6v-5.6h5.6L66.4,28.5L66.4,28.5z"/>
</g>
<g id="Ebene_6" display="none">
	<path display="inline" d="M42.6,9.2v7.4h-7.4h-7.4h-7.4V9.2h7.4h7.4H42.6z M42.6,16.7v7.4H50h7.4v-7.4H50H42.6z M79.6,16.7v7.4H87
		v-7.4H79.6z M87,24.1v7.4v7.4v7.4h7.4v-7.4v-7.4v-7.4H87z M79.6,53.7v7.4v7.4v7.4v7.4h-7.4h-7.4h-7.4H50h-7.4h-7.4v7.4h7.4H50h7.4
		h7.4h7.4h7.4H87v-7.4v-7.4v-7.4v-7.4v-7.4v-7.4h-7.4L79.6,53.7L79.6,53.7z M13,24.1h7.4v-7.4H13V24.1z M5.5,31.5v7.4v7.4H13v-7.4
		v-7.4v-7.4H5.5V31.5z M13,61.1v7.4h7.4v-7.4v-7.4v-7.4H13v7.4V61.1z M50,68.5h-7.4v7.4H50h7.4h7.4v-7.4h-7.4H50z M35.2,46.3v7.4
		h7.4v-7.4v-7.4h-7.4V46.3z M72.2,61.1h-7.4v7.4h7.4V61.1z M64.8,46.3v-7.4h-7.4v7.4v7.4h7.4V46.3z M72.2,9.2h-7.4h-7.4v7.4h7.4h7.4
		h7.4V9.2H72.2z"/>
</g>
<g id="Ebene_7" display="none">
	<path id="hkmfda_1_" display="inline" d="M28.1,83.3c-0.8-0.2-1.1,0-1.6-0.3c-1-0.6-1.5-2.1-0.9-3.5c0.3-0.8,1.7-1.4,2-2.1
		c0.4-1.1-0.3-3.5-0.3-5c-0.1-5.6,0.5-10.5,1.3-15c0.7-3.7,1.5-8.1,2.7-12.1c0.4-1.2,1.2-3.2,0.9-4.1c-0.3-0.9-1.6-0.8-1.5-1.8
		c0.1-0.7,1.2-1,1.5-1.6c0.5-0.9,0.6-2.4,1-3.6c1.1-3.5,2.3-7.5,3.4-10.6c-0.4-0.8,0.2-1.8,0.3-3c0.1-0.9-0.1-2.1-0.2-3.3
		c-0.1-1.2,0.2-2.4-0.1-3.2s-1.1-1.5-0.9-2.4c2.3-1.4,6.4-1.1,9.5-1.8c0-3.5,1.7-7.2,4.6-7.3c0.8,0,1.5,0.5,2.2,0.5
		c0.8,0,1.4-0.3,2.1-0.3c3.3,0.1,4.1,3.2,4.2,7c3.1,0.4,6.8,0.2,8.9,1.6c0,0.7-0.8,1.3-0.9,2c-0.2,0.8,0.1,2,0,3.4
		c-0.1,1.4-0.3,2.9-0.1,3.9c0.1,0.4,0.5,0.8,0.5,1.2c0.1,0.6-0.3,0.9-0.2,1.3c0.1,1.1,0.8,2.3,1.2,3.5c0.9,2.6,1.6,4.6,2.4,7.1
		c0.4,1.3,0.7,2.9,1.1,3.6c0.4,0.7,1.5,0.7,1.5,1.5c0,1-1.2,1-1.4,1.8c-0.4,1.1,0,3.9,0,5.9c0,13.9,0,30.7,0,43c0.5,0.6,0.4,2,0,2.9
		c-0.9,1.9-4.4,2.8-7.1,3.4c-8,1.9-22,1.9-28.5-0.8c-1.5-0.6-3.4-1.8-3.5-3.5c0-0.6,0.2-1,0.3-1.6c0.2-1.4-0.1-3.1,0-4.4
		C31,85.1,29.5,83.7,28.1,83.3z M48.9,9.7c1.6,0.2,3.9,0.2,5.5,0c0.2-2.4-0.3-4.7-1.8-5.8C50.3,4.8,49,6.6,48.9,9.7z M32.1,46.4
		c-2.1,7.2-4.5,18.8-3.5,29.1c0.2,1.7-0.2,2,0.8,2.7c0.7,0.5,1.7,1.1,2.9,1.1C32.3,68.5,32.2,57.6,32.1,46.4z"/>
</g>
<g id="Ebene_8" display="none">
	<path display="inline" d="M65.4,87.2c0.1,11.4-15.8,10.4-15.8,10.4c-14.2,0-15-8.9-15-8.9V49.5c0-15.9,2.3-18.3,2.3-18.3
		c5.8-14.2,5-22.2,5-22.2h-0.2l-0.6-0.5l0.1-1.3c0.2-0.1,1-0.6,1-0.6c-0.5,0.1-1.4-0.3-1.4-0.3V4.2c0.1-0.3,0.7-0.7,0.7-0.7
		c0.1-0.3,1.1-0.8,1.1-0.8c11.2-0.7,14.8,0,14.8,0c0.7,0.1,1,0.7,1,0.7c0.4,0,0.7,0.6,0.7,0.6L59,6.2l-1.3,0.3l0.4,0.4l0.6,0.4v1.2
		L58,8.9c-1.4,4.5,3.5,19.4,3.5,19.4c3.7,6.2,3.9,14.3,3.9,14.3v44.1"/>
</g>
<g id="Ebene_9" display="none">
	<path display="inline" d="M55.4,5.5c1.2,1,0.7,3.7,1.1,5.5c7.4,0.2,8.9,5.3,10.9,11.5c0.5,1.7,1.1,3.5,1.6,5.2
		c0.6,1.9,0.5,4.1,1.1,5.7c0.7,1.9,2.9,3.2,3.3,6c0.4,2.6-0.8,7.4-0.8,10.7c-0.1,9.2-0.5,20.9,0.3,28.7c0.2,2.3,0.9,3.9,0.8,5.5
		c-0.8,10.6-15,11.8-29.3,10.9c-8.3-0.5-17.2-2.3-17.5-10.4c-0.1-2.1,0.8-4.1,0.8-5.7c0.4-11.9-0.5-26-1.4-36.4
		c-0.6-8,4.3-14.3,7.7-18.9c2.7-3.6,5.6-6.9,8.5-10.7c-1.1-1.9-0.7-4.7-0.3-7.1C44.8,4,52.1,4.2,55.4,5.5z M58.1,27.1
		c1.3,2.9,2.4,6.2,4.4,6.8c0.1-5.8-1.7-12.2-3.8-16.7C52.3,16.2,56.5,23.7,58.1,27.1z"/>
</g>
<g id="Ebene_10" display="none">
	<path display="inline" d="M96.9,62L96,36H3.7L3.1,60.8l7.6,1l12.4,0c-0.2-0.4-0.3-0.9-0.3-1.5c0-2,1.6-3.6,3.6-3.6
		c2,0,3.6,1.6,3.6,3.6c0,0.5-0.1,1-0.3,1.5l5.1,0c-0.2-0.5-0.3-1-0.3-1.5c0-2,1.6-3.6,3.6-3.6c2,0,3.6,1.6,3.6,3.6
		c0,0.5-0.1,1-0.3,1.5L74.9,62c-0.2-0.5-0.4-1-0.4-1.6c0-2,1.6-3.6,3.6-3.6s3.6,1.6,3.6,3.6c0,0.6-0.1,1.1-0.4,1.6L96.9,62z
		 M5.3,42.9v-5.3h88.6v5.3v18.3h-9.4V42.9H5.3z M63.3,55.5h-9.4H20.2h-9.4v-8.3h71.7v8.3L63.3,55.5L63.3,55.5z M29.2,60.4
		c0,1.6-1.3,2.9-2.9,2.9c-1.6,0-2.9-1.3-2.9-2.9c0-1.6,1.3-2.9,2.9-2.9C27.9,57.5,29.2,58.8,29.2,60.4z M40.9,60.4c0,1.7-1.3,3-3,3
		c-1.7,0-3-1.3-3-3c0-1.7,1.3-3,3-3C39.6,57.4,40.9,58.7,40.9,60.4z M81.1,60.4c0,1.7-1.3,3-3,3c-1.7,0-3-1.3-3-3c0-1.7,1.3-3,3-3
		C79.8,57.4,81.1,58.7,81.1,60.4z"/>
</g>
<g id="Ebene_11" display="none">
	<path display="inline" d="M8.6,42.9C8.6,42.9,8.6,42.9,8.6,42.9c0,0.1,0,0.3,0,0.5h0C8.7,43.3,8.6,43.1,8.6,42.9z M48.9,19.6
		c-21.8,0-39.6,10-40.3,22.5c0.7-10.9,18.4-21.6,40.3-21.6s39.6,10.7,40.3,21.6C88.5,29.7,70.8,19.6,48.9,19.6z M90.3,49.7
		c0-0.2,0-0.3,0-0.5c0-1.9-0.4-3.8-1.1-5.5c0-0.1,0-0.1,0-0.2c0-0.2,0-0.3,0-0.5c0,0,0,0,0-0.1c0,1.3-0.3,2.5-0.7,3.8
		c-0.3,2.4-0.3,5.3-1.3,7c-1.1,2-3.3,2.4-5.3,3.2c-2.2,0.8-3.2,1.4-4.4,3.9c-0.4,0.9-0.1,1.8-0.9,2.8c-2.2,2.6-4-0.6-6.8,0.5
		c-1.8,0.7-1.6,2.4-4.2,2.9c-1.3,0.3-2.8,0-3.8-0.4c-3-1.3-4-2.4-7.2-0.9c-1,0.5-3.1,2.9-3.9,3c-1.3,0.1-1.3-1.3-2.3-1.9
		c-1.3-0.9-8.8-0.3-9.2,1.7c-2.7-1.4-4.1-5.2-6.8-6.3c-3-1.1-4.8,1.2-7.2-1.2c-1.6-1.6-3.1-2.7-4.7-3.8c-2.3-1.1-4.3-2.4-6-3.8
		c-0.9,0.1-1.9,0.5-2.3,1.1c-1.7-3.4-3.8-7-3.6-11c0,0.1,0,0.1,0,0.2c-0.7,1.8-1.1,3.6-1.1,5.5c0,0.2,0,0.3,0,0.5c0,0.2,0,0.3,0,0.5
		c0,0.2,0,0.3,0,0.5c0,0.2,0,0.3,0,0.5c0,0.2,0,0.3,0,0.5c0,0.2,0,0.3,0,0.5c0,0.2,0,0.3,0,0.5c0,0.2,0,0.3,0,0.5c0,0.2,0,0.3,0,0.5
		c0,0.2,0,0.3,0,0.5c0,0.2,0,0.3,0,0.5c0,0.2,0,0.3,0,0.5c0,0.2,0,0.3,0,0.5c0,0.2,0,0.3,0,0.5c0,13.2,18.5,23.9,41.4,23.9
		s41.4-10.7,41.4-23.9c0-0.2,0-0.3,0-0.5c0-0.2,0-0.3,0-0.5c0-0.2,0-0.3,0-0.5c0-0.2,0-0.3,0-0.5c0-0.2,0-0.3,0-0.5
		c0-0.2,0-0.3,0-0.5c0-0.2,0-0.3,0-0.5c0-0.2,0-0.3,0-0.5c0-0.2,0-0.3,0-0.5c0-0.2,0-0.3,0-0.5c0-0.2,0-0.3,0-0.5c0-0.2,0-0.3,0-0.5
		C90.3,50,90.3,49.9,90.3,49.7z M89.2,42.2c0,0.2,0,0.5,0,0.7c0,0,0,0,0,0C89.2,42.6,89.2,42.4,89.2,42.2z M8.6,42.9
		c0-0.2,0-0.5,0-0.7C8.7,42.4,8.6,42.6,8.6,42.9C8.6,42.8,8.6,42.9,8.6,42.9z M33,47.5c3.8-2.2,9.5-3.5,16-3.5
		c6.5,0,12.2,1.4,16,3.5c1.8-1.1,3.2-2.3,3.9-3.7c0.4-0.7,0.6-1.5,0.6-2.2c0-5.2-9.2-9.5-20.5-9.5s-20.5,4.2-20.5,9.5
		c0,0.7,0.2,1.3,0.5,2C29.6,45.1,31,46.4,33,47.5z"/>
</g>
<g id="Ebene_12">
	<path fill="#FFFFFF" d="M29.8,43.5C29.8,43.5,29.8,43.5,29.8,43.5C29.8,43.5,29.8,43.6,29.8,43.5C29.8,43.6,29.8,43.5,29.8,43.5z
		 M61.6,52.2c0-3,0-5.8,0-8.7c1.5,0,2.9,0,4.4,0c0-1.6,0-3,0-4.5c-3.1,0-6.1,0-9,0c0,3,0,5.9,0,9c-3,0-5.8,0-8.9,0
		c0-4.5,0-9.1,0-13.6c-1.5,0-3,0-4.5,0c0,1.5,0,3,0,4.7c-4.8,0-9.3,0-13.7,0c0,1.6,0,3.1,0,4.5c3,0,6,0,9.2,0c0,1.6,0,3,0,4.6
		c1.6,0,3,0,4.4,0c0,1.5,0,2.8,0,4.2c-1.5,0-2.9,0-4.3,0c0,6.2,0,12.2,0,18.3c1.6,0,3,0,4.4,0c0-3,0-6,0-9.2c1.7,0,3.1,0,4.7,0
		c0-1.6,0-3,0-4.6c1.5,0,2.7,0,4.1,0c0-1.6,0-3,0-4.4c1.6,0,3,0,4.6,0c0,3,0,6,0,8.9c1.6,0,3,0,4.6,0c0-1.5,0-3,0-4.5
		c1.6,0,3.1,0,4.5,0c0-1.5,0-3,0-4.6C64.4,52.2,63,52.2,61.6,52.2z M56.9,38.9C56.9,38.9,56.9,38.9,56.9,38.9
		C56.9,38.9,56.9,38.9,56.9,38.9C56.9,38.9,56.9,38.9,56.9,38.9C56.9,38.9,56.9,38.9,56.9,38.9z M66,56.9C66,56.9,66,56.9,66,56.9
		L66,56.9C66.1,56.9,66.1,56.9,66,56.9z M97.8,3.1c0,10.4,0,20.7,0,31.1c-10.5,0-20.9,0-31.5,0c0-10.3,0-20.7,0-31.1
		C76.6,3.1,87.1,3.1,97.8,3.1z M93.1,7.2c-7.5,0-14.8,0-22.3,0c0,7.6,0,15,0,22.3c7.6,0,15,0,22.3,0C93.1,22,93.1,14.7,93.1,7.2z
		 M3.1,66.1c10.4,0,20.7,0,31.1,0c0,10.5,0,21,0,31.6c-10.3,0-20.7,0-31.1,0C3.1,87.2,3.1,76.6,3.1,66.1z M7.2,93.1
		c7.6,0,15,0,22.4,0c0-7.5,0-14.9,0-22.3c-7.5,0-14.9,0-22.4,0C7.2,78.3,7.2,85.6,7.2,93.1z M34.2,34.2c-10.4,0-20.7,0-31.1,0
		c0-10.3,0-20.7,0-31.1c10.3,0,20.6,0,31.1,0C34.2,13.5,34.2,23.8,34.2,34.2z M29.6,7.2c-7.5,0-14.8,0-22.3,0c0,7.6,0,15,0,22.3
		c7.6,0,15,0,22.3,0C29.6,22,29.6,14.7,29.6,7.2z M43.4,74.8C43.4,74.8,43.4,74.8,43.4,74.8C43.5,74.8,43.4,74.8,43.4,74.8
		C43.4,74.8,43.4,74.8,43.4,74.8z M39.1,97.7c3.1,0,6,0,9,0c0-1.5,0-3,0-4.4c0,0,0,0,0,0c0,0,0,0,0-0.1c-1.4,0-2.8,0-4.4,0
		c0-1.6,0-3,0-4.6c1.5,0,3,0,4.4,0c0,0,0,0,0-0.1c0,0,0,0,0.1,0c0-1.4,0-2.9,0-4.4c1.4,0,2.6,0,4.1,0c0,1.4,0,2.8,0,4.4
		c-1.4,0-2.7,0-4.1,0c0,0,0,0,0,0.1c0,0,0,0-0.1,0c0,1.5,0,3.1-0.1,4.6c0,0,0,0,0,0c0,0,0,0,0,0.1c2.9,0,5.8,0,8.9,0
		c0,1.5,0,2.9,0,4.3c3.2,0,6.1,0,9,0c0-3.1,0-6,0-9.1c-1.5,0-3,0-4.6,0c0-4.7,0-9.2,0-13.6c-1.6,0-3,0-4.6,0c0,1.5,0,3,0,4.3
		c-4.6,0-8.9,0-13.5,0c0-1.6,0-3,0-4.5c-1.5,0-2.9,0-4.3,0C39.1,82.7,39.1,90.2,39.1,97.7z M25.5,39c-7.6,0-15,0-22.4,0
		c0,3.1,0,6,0,9c1.4,0,2.7,0,4.1,0c0-1.5,0-3,0-4.4c4.8,0,9.2,0,13.9,0c0,1.6,0,3,0,4.5c1.6,0,3,0,4.5,0c0,1.4,0,2.7,0,4
		c3,0,5.8,0,8.6,0c0-1.4,0-2.7,0-4.2c-1.5,0-2.9,0-4.4,0c0-1.6,0-3,0-4.4c-1.4,0-2.7,0-4.3,0C25.5,41.9,25.5,40.5,25.5,39z
		 M29.8,43.6C29.8,43.6,29.8,43.5,29.8,43.6C29.8,43.5,29.8,43.6,29.8,43.6C29.8,43.6,29.8,43.6,29.8,43.6z M57,11.7
		c1.6,0,3,0,4.4,0c0-1.6,0-3,0-4.4c-3.1,0-6,0-9.1,0c0,3.1,0,6,0,9c-4.4,0-8.7,0-13.2,0c0,1.7,0,3.1,0,4.5c6,0,11.9,0,17.9,0
		C57,17.7,57,14.8,57,11.7z M88.6,61.6c-1.6,0-3,0-4.5,0c0,3,0,6,0,9.1c-1.6,0-3.1,0-4.4,0c0,1.5,0,2.8,0,4.2c1.5,0,2.9,0,4.5,0
		c0,1.6,0,3,0,4.5c1.6,0,3.1,0,4.5,0c0-1.5,0-3,0-4.7c1.7,0,3.1,0,4.5,0c0-3,0-5.8,0-8.7c-1.5,0-2.9,0-4.6,0
		C88.6,64.4,88.6,63,88.6,61.6z M79.5,83.9C79.5,84,79.5,84,79.5,83.9C79.5,84,79.6,83.9,79.5,83.9C79.5,83.9,79.5,83.9,79.5,83.9z
		 M74.8,79.4c0-1.6,0-3,0-4.4c-3,0-5.9,0-8.6,0c0,1.5,0,2.9,0,4.5c1.5,0,3,0,4.6,0c0,1.6,0,3.1,0,4.4c3.1,0,5.9,0,8.7,0
		c0-1.5,0-3,0-4.6C77.8,79.4,76.4,79.4,74.8,79.4z M79.5,52.4c1.6,0,3.1,0,4.6,0c0,1.6,0,3,0,4.4c1.6,0,3,0,4.6,0c0-1.5,0-3,0-4.6
		c1.6,0,3.1,0,4.4,0c0-1.5,0-2.8,0-4.1c-4.5,0-9.1,0-13.6,0.1C79.5,49.5,79.5,50.8,79.5,52.4z M93.1,48C93.1,48,93.1,48,93.1,48
		C93.2,48.1,93.2,48.1,93.1,48C93.2,48,93.2,48,93.1,48C93.2,48,93.2,48,93.1,48L93.1,48z M79.4,48.1C79.5,48.1,79.5,48.1,79.4,48.1
		C79.5,48.1,79.5,48.1,79.4,48.1L79.4,48.1z M11.8,56.9C11.7,56.9,11.7,56.9,11.8,56.9C11.7,56.9,11.7,56.9,11.8,56.9L11.8,56.9z
		 M3.1,52.4c0,1.6,0,3,0,4.5c3,0,5.8,0,8.6,0c0-1.5,0-3,0-4.6c1.7,0,3.1,0,4.5,0c0-1.5,0-2.8,0-4.1c-3.1,0-6.1,0-9,0
		c0,1.4,0,2.7,0,4.2C5.6,52.4,4.3,52.4,3.1,52.4z M7.2,48.1C7.2,48.1,7.2,48.1,7.2,48.1C7.1,48.1,7.1,48.1,7.2,48.1
		C7.1,48.1,7.1,48.1,7.2,48.1C7.1,48.1,7.1,48.1,7.2,48.1z M79.4,48.1L79.4,48.1C79.5,48.1,79.5,48.1,79.4,48.1
		C79.4,48.1,79.4,48.1,79.4,48.1z M74.8,43.5c0-1.7,0-3.1,0-4.5c-1.5,0-2.7,0-4,0c0,4.4,0,8.8,0,13.2c1.4,0,2.7,0,4.2,0
		c0-1.4,0-2.7,0-4.1c1.6,0,3.1,0,4.5,0c0-1.5,0-3,0-4.5C78,43.5,76.5,43.5,74.8,43.5z M11.8,56.9C11.8,56.9,11.7,56.9,11.8,56.9
		C11.7,56.9,11.7,56.9,11.8,56.9C11.8,56.9,11.8,56.9,11.8,56.9z M25.4,61.4c0-1.5,0-3,0-4.4c-4.6,0-9.1,0-13.6,0c0,1.5,0,3,0,4.4
		C16.5,61.4,20.9,61.4,25.4,61.4z M88.5,84C88.5,84,88.5,84,88.5,84C88.6,84,88.6,84,88.5,84C88.6,84,88.6,84,88.5,84
		C88.6,84,88.6,84,88.5,84L88.5,84z M79.5,84C79.5,84,79.5,84,79.5,84C79.6,84,79.6,84,79.5,84C79.6,83.9,79.5,84,79.5,84z
		 M79.6,88.7c1.5,0,2.9,0,4.6,0c0,1.6,0,3,0,4.5c1.6,0,3.1,0,4.5,0c0-3.1,0-6.1-0.1-9.2c-3,0-6,0-9,0C79.6,85.5,79.6,87,79.6,88.7z
		 M79.4,66c0-3,0-6,0-9c-1.5,0-3,0-4.6,0c0,1.6,0,3,0,4.6c-1.5,0-2.8,0-4.1,0c0,1.5,0,2.9,0,4.4C73.7,66,76.5,66,79.4,66z
		 M70.6,61.6C70.6,61.6,70.6,61.6,70.6,61.6C70.6,61.6,70.6,61.5,70.6,61.6C70.6,61.5,70.6,61.5,70.6,61.6
		C70.6,61.5,70.6,61.6,70.6,61.6L70.6,61.6z M56.9,34.3c1.5,0,3,0,4.4,0c0-3,0-5.8,0-8.6c-3.1,0-6,0-9,0c0,1.4,0,2.7,0,4.1
		c1.4,0,2.9,0,4.6,0C56.9,31.3,56.9,32.8,56.9,34.3z M52.3,29.7C52.3,29.7,52.3,29.7,52.3,29.7C52.3,29.7,52.3,29.7,52.3,29.7
		C52.3,29.7,52.3,29.7,52.3,29.7C52.3,29.7,52.3,29.7,52.3,29.7z M47.9,7.3c-3,0-6,0-8.9,0c0,1.5,0,3,0,4.4c3,0,5.9,0,8.9,0
		C47.9,10.2,47.9,8.8,47.9,7.3z M57,70.5c3.1,0,6,0,9,0c0-1.5,0-2.9,0-4.3c-3,0-6,0-9,0C57,67.7,57,69.1,57,70.5z M39,25.6
		c0,2.9,0,5.8,0,8.7c1.6,0,3,0,4.4,0c0-2.9,0-5.8,0-8.7C41.9,25.6,40.4,25.6,39,25.6z M43.5,34.3C43.5,34.3,43.5,34.3,43.5,34.3
		C43.5,34.3,43.5,34.3,43.5,34.3C43.5,34.3,43.5,34.3,43.5,34.3C43.5,34.3,43.5,34.3,43.5,34.3z M70.8,97.8c1.4,0,2.6,0,3.9,0
		c0-3.2,0-6.1,0-9c-1.4,0-2.7,0-3.9,0C70.8,91.8,70.8,94.8,70.8,97.8z M88.7,93.3C88.7,93.2,88.7,93.2,88.7,93.3
		C88.7,93.2,88.6,93.2,88.7,93.3C88.6,93.2,88.6,93.2,88.7,93.3C88.6,93.3,88.7,93.3,88.7,93.3z M93.1,97.7c0-1.5,0-3,0-4.4
		c-1.6,0-3,0-4.4,0c0,1.5,0,3,0,4.4C90.3,97.7,91.7,97.7,93.1,97.7z M88.7,79.5C88.7,79.5,88.7,79.5,88.7,79.5
		C88.7,79.4,88.6,79.4,88.7,79.5C88.6,79.5,88.6,79.5,88.7,79.5C88.6,79.5,88.7,79.5,88.7,79.5z M93.1,84c0-1.6,0-3,0-4.5
		c-1.6,0-3,0-4.4,0c0,1.5,0,3-0.1,4.5C90.1,84,91.6,84,93.1,84z M52.3,38.9c1.6,0,3.1,0,4.5,0c0-1.5,0-3,0-4.5c-1.5,0-3,0-4.5,0
		C52.3,35.8,52.3,37.2,52.3,38.9z M56.9,34.3C56.9,34.3,56.9,34.3,56.9,34.3C56.9,34.3,56.9,34.3,56.9,34.3
		C56.9,34.3,56.9,34.3,56.9,34.3C56.9,34.3,56.9,34.3,56.9,34.3z M93.3,61.4c1.5,0,2.9,0,4.3,0c0-1.5,0-3,0-4.4c-1.5,0-2.9,0-4.3,0
		C93.3,58.6,93.3,60,93.3,61.4z M70.6,61.5c0-1.5,0-3,0-4.6c-1.6,0-3.1,0-4.5,0c0,1.5,0,3,0,4.6C67.7,61.5,69.1,61.5,70.6,61.5z
		 M66,56.9C66.1,56.9,66.1,56.9,66,56.9C66.1,56.9,66.1,56.9,66,56.9C66.1,56.9,66,56.9,66,56.9z M29.8,61.4c1.6,0,3,0,4.4,0
		c0-1.5,0-2.9,0-4.4c-1.5,0-3,0-4.4,0C29.8,58.5,29.8,59.9,29.8,61.4z M79.5,43.5C79.5,43.5,79.5,43.5,79.5,43.5
		C79.4,43.5,79.4,43.5,79.5,43.5C79.5,43.5,79.5,43.5,79.5,43.5C79.5,43.5,79.5,43.5,79.5,43.5z M83.9,39c-1.5,0-3,0-4.4,0
		c0,1.6,0,3,0,4.4c1.5,0,3,0,4.4,0C83.9,41.8,83.9,40.4,83.9,39z M88.8,39c0,1.5,0,3,0,4.4c1.6,0,3,0,4.4,0c0-1.5,0-3,0-4.4
		C91.6,39,90.2,39,88.8,39z M93.2,43.5C93.2,43.5,93.2,43.5,93.2,43.5C93.2,43.5,93.2,43.5,93.2,43.5C93.3,43.5,93.3,43.5,93.2,43.5
		C93.2,43.5,93.2,43.5,93.2,43.5z M97.7,43.5c-1.6,0-3,0-4.4,0c0,1.5,0,3-0.1,4.5c1.5,0,3,0,4.5,0C97.7,46.4,97.7,45,97.7,43.5z
		 M47.9,74.8c0-1.5,0-2.8,0-4.1c-1.6,0-3,0-4.4,0c0,1.4,0,2.7-0.1,4.1C45,74.8,46.5,74.8,47.9,74.8z M43.5,70.7
		C43.5,70.7,43.5,70.7,43.5,70.7C43.5,70.6,43.5,70.6,43.5,70.7C43.5,70.7,43.5,70.7,43.5,70.7C43.5,70.7,43.5,70.7,43.5,70.7z
		 M43.5,74.8C43.5,74.8,43.5,74.8,43.5,74.8C43.4,74.8,43.4,74.8,43.5,74.8C43.4,74.8,43.5,74.8,43.5,74.8z M52.3,29.7
		c-1.4,0-2.7,0-4.2,0c0,1.7,0,3.1,0,4.5c1.4,0,2.8,0,4.2,0C52.3,32.8,52.3,31.3,52.3,29.7z M48.1,34.3
		C48.1,34.3,48.1,34.3,48.1,34.3C48.1,34.3,48.1,34.3,48.1,34.3C48.1,34.3,48.1,34.3,48.1,34.3C48.1,34.3,48.1,34.3,48.1,34.3z
		 M52.3,34.3C52.3,34.3,52.3,34.3,52.3,34.3C52.3,34.3,52.3,34.3,52.3,34.3C52.3,34.3,52.3,34.3,52.3,34.3
		C52.3,34.3,52.3,34.3,52.3,34.3z M88.6,11.8c-4.7,0-9.1,0-13.6,0c0,4.6,0,9.1,0,13.5c4.6,0,9.1,0,13.6,0
		C88.6,20.8,88.6,16.4,88.6,11.8z M11.8,88.6c4.5,0,9,0,13.5,0c0-4.6,0-9.1,0-13.5c-4.6,0-9.1,0-13.5,0
		C11.8,79.6,11.8,84.1,11.8,88.6z M25.4,11.9c-4.6,0-9.1,0-13.5,0c0,4.6,0,9,0,13.5c4.5,0,9,0,13.5,0C25.4,20.8,25.4,16.3,25.4,11.9
		z"/>
</g>
</svg>
