<?xml version="1.0" encoding="utf-8"?>
<!-- Generator: Adobe Illustrator 18.1.0, SVG Export Plug-In . SVG Version: 6.00 Build 0)  -->
<!DOCTYPE svg PUBLIC "-//W3C//DTD SVG 1.1//EN" "http://www.w3.org/Graphics/SVG/1.1/DTD/svg11.dtd">
<svg version="1.1" id="Layer_1" xmlns="http://www.w3.org/2000/svg" xmlns:xlink="http://www.w3.org/1999/xlink" x="0px" y="0px"
	 viewBox="0 0 360 129.1" enable-background="new 0 0 360 129.1" xml:space="preserve">
<path fill="#FEBC12" d="M94.6,48c0-10.3,0-20.6,0-30.8c0-4,0.2-8.1,0-12.1c-0.3-5.1-7.4-7.1-9.9-2.3c-0.9,1.7-0.5,4.6-0.5,6.5
	c0,6,0,11.9,0,17.9c-3.8-2.9-8.3-4.7-13.1-5.2c-2.6-0.3-5.2-0.2-7.7,0.3c-1.1,0.2-5.3,0.9-5.9,2c-0.2,0.5,0,1.8,0,2.4
	c0,1.4,0,2.7,0,4.1c0,1.9,0,3.8,0,5.7c7.6-7.1,20.3-4.7,25,4.6c4.2,8.4-0.1,18.9-9,22c-10.3,3.6-20.8-4.3-21.1-15
	c-0.1-4.6,0-9.2,0-13.8c0-2.5,0.2-5.1,0-7.6C52,20,41.6,20.6,42.1,27.2c-6.8-5.2-16-6.7-24.1-4C9.1,26,2.3,33.8,0.5,43
	c-3.3,16.8,10.8,32.5,27.7,31.2c4.7-0.4,9.2-2,13.1-4.7c0.5-0.4,2.9-1.8,2.9-2.4c0-0.5-1.6-2.1-1.9-2.6c-1.4-2.2-2.5-4.7-3.2-7.2
	c-6.6,9.2-20.9,8.6-26.6-1.2c-6-10.4,1.7-23.8,13.7-23.9c5.3,0,10.3,2.7,13.2,7c3.2,4.8,2.2,10,3.5,15.3
	C45.8,66,56.5,74.2,68.3,74.2C82.6,74.2,94.5,62.3,94.6,48z"/>
<g>
	<path fill="#FEBC12" d="M223.3,109.2C223.3,109.2,223.3,109,223.3,109.2L223.3,109.2z"/>
	<path fill="#FEBC12" d="M261.8,5.6c0,0,0-0.1,0-0.1c0.3-3.3-2.8-5.9-6-5.4c-2.9,0.4-4.4,2.8-4.4,5.6c0,3.8,0,7.6,0,11.4
		c0,0.7,0.4,3.3,0,3.9c-0.1,0.2-1.7,0.1-2.1,0.2c-1.1,0.1-2.2,0.4-3.3,0.7c-1.9,0.6-3.7,1.4-5.4,2.5c-6.7,4.5-9.3,11.6-9.1,19.4
		c0.1,4.5,0,9-2.7,13c-3.7,5.5-10.6,8.2-17,6.7c-6.4-1.5-11.3-7.1-12-13.6c-0.4-3.5-0.3-6.8-1.5-10.2c-1-2.9-2.4-5.7-4.3-8.1
		c-10.3-12.9-30.3-13-40.8-0.5c-0.5,0.6-1.4,0.6-1.9,0c-8.4-9.9-23.3-12.5-34.4-5.3c-6.1,3.9-10.4,10.4-11.7,17.6
		c-0.7,4-0.4,8.1-0.4,12.1c0,1.6,0.2,3.5-0.4,5.1c-1.3,3-4.9,3.9-7.5,2.3c-0.6-0.4-1.4-0.2-1.7,0.4c-1.2,2.2-2.7,4.2-4.5,6
		c-0.5,0.5-0.5,1.4,0.1,1.9c8.8,6.1,21.6,1.4,24-9.3c1.2-5.2-0.1-10.5,0.4-15.8c0,0.3,0,0.7,0,1c0.4-8.7,8-15.6,16.7-15.2
		c8.7,0.4,14.8,7.5,15.1,16c0.2,4.5,0.1,9.1,0.1,13.6c0,4.2-1.4,11.9,4.6,12.5c6.6,0.7,5.7-6.8,5.7-11c0-4.7,0-9.5,0-14.2
		c0-7.4,3.9-14.1,11.3-16.3c8.1-2.4,16.9,2.1,19.6,10.1c0.6,1.8,0.8,3.5,0.8,5.4c0.1,3.1,0.6,6,1.6,8.9c1.9,5.1,5.4,9.5,9.9,12.6
		c8.6,5.8,20.1,6,28.8,0.5c0.8-0.5,1.9,0.1,1.9,1c0,5.8,0,11.6,0,17.4c0,3.8,0.1,7.6,0,11.3c-0.1,3.5,0.6,7.7-0.4,11.1
		c-1.9,7.2-11,10-16.6,5.1c-5.6-4.8-4.2-14.2,2.6-17.1c2.3-1,4.8-0.9,7.3-0.9c0.4,0,2.1,0.3,2.4,0c0.2-0.1,0-1.2,0-1.5
		c0-2.4,0-4.7,0-7.1c0-0.3,0.2-1.5,0-1.8c-0.1-0.1-1-0.1-1-0.1c-5.1,0-10.5,0.2-15.1,3c-6,3.6-9.9,10.2-10.1,17.2
		c-0.4,14.8,15.3,25.4,28.9,19.4c6.4-2.8,11-8.8,12.1-15.6c0.6-3.6,0.3-7.4,0.2-11c0-6.8,0-13.7,0.1-20.3c0-7,0.1-14,0.1-21.1
		c0-3.5,0-7,0-10.6c0-3.9-0.8-8.7,1.1-12.2c1.5-2.6,4.1-4.5,7-5.1c0.7-0.1,1.4,0.4,1.5,1.1c0.1,2-0.1,4.3-0.1,6.3c0,5.7,0,11.4,0,17
		c0,5.4,0,10.8,0,16.3c0,3.3,0.4,7-1.1,10c-0.6,1.2-1.4,2.2-2.4,3.1c-0.4,0.4-1.2,0.7-1.4,1.2c-0.3,0.8,0,2.4,0,3.3v6
		c0,0.8,0.8,1.4,1.6,1.1c7.9-2.9,13.4-10.5,13.6-19c0.1-2.3,0-4.7,0-7c0-10.5,0-20.9,0-31.4c0-2.3,0-4.6,0-6.9
		c0-0.7,0.5-1.2,1.2-1.2l13.5,0c2.4,0,5,0.3,7.4,0c0.5,0,0.6,0,0.9-0.2c0.7-0.5,1.3-2.1,1.7-2.9l3.3-5.5c0.5-0.8-0.1-1.8-1-1.8
		L263,21c-0.7,0-1.2-0.5-1.2-1.2V5.6z"/>
	<polygon fill="#FEBC12" points="291.7,31.4 300,31.4 306.5,21 298.2,21 291.7,31.4 	"/>
	<polygon fill="#FEBC12" points="307.2,31.4 315.6,31.4 322.1,21 313.7,21 307.2,31.4 	"/>
	<polygon fill="#FEBC12" points="322.6,31.4 330.9,31.4 337.4,21 329.1,21 322.6,31.4 	"/>
	<polygon fill="#FEBC12" points="338.2,31.4 346.5,31.4 353,21 344.7,21 338.2,31.4 	"/>
	<polygon fill="#FEBC12" points="353.6,31.4 360,31.4 360,21 353.6,31.4 	"/>
	<path fill="#FEBC12" d="M241.8,100.9c0.1-6.2,0-12.5,0.1-18.7c-0.2,0.7-0.1,1.8-0.1,2.6c0,2.2,0,4.3,0,6.5
		C241.8,94.6,241.8,97.8,241.8,100.9z"/>
</g>
</svg>
