<?xml version="1.0" encoding="utf-8"?>
<!-- Generator: Adobe Illustrator 18.1.0, SVG Export Plug-In . SVG Version: 6.00 Build 0)  -->
<!DOCTYPE svg PUBLIC "-//W3C//DTD SVG 1.1//EN" "http://www.w3.org/Graphics/SVG/1.1/DTD/svg11.dtd">
<svg version="1.1" id="Layer_1" xmlns="http://www.w3.org/2000/svg" xmlns:xlink="http://www.w3.org/1999/xlink" x="0px" y="0px"
	 viewBox="0 0 80.3 9.9" enable-background="new 0 0 80.3 9.9" xml:space="preserve">
<g>
	<path fill="#348DD9" d="M3,9.8V1.2H0V0.2h7.3v1.1H4.2v8.5H3z"/>
	<path fill="#348DD9" d="M5.9,6.3c0-2,1.3-3.6,3.4-3.6s3.4,1.6,3.4,3.6c0,2-1.3,3.7-3.4,3.7S5.9,8.3,5.9,6.3z M11.7,6.3
		c0-1.4-0.8-2.7-2.3-2.7S7,4.9,7,6.3C7,7.7,7.9,9,9.3,9S11.7,7.7,11.7,6.3z"/>
	<path fill="#348DD9" d="M18.4,9.8v-1c-0.5,0.6-1.4,1.2-2.5,1.2c-1.5,0-2.2-0.7-2.2-2.2V2.8h1.1v4.6c0,1.2,0.6,1.6,1.6,1.6
		c0.8,0,1.6-0.5,2-1.1V2.8h1.1v7H18.4z"/>
	<path fill="#348DD9" d="M20.3,6.3c0-2.1,1.4-3.6,3.5-3.6c1.3,0,2,0.5,2.5,1.2l-0.7,0.6c-0.5-0.6-1.1-0.9-1.8-0.9
		c-1.5,0-2.4,1.1-2.4,2.7c0,1.5,0.9,2.7,2.4,2.7c0.7,0,1.3-0.3,1.8-0.9l0.7,0.7c-0.5,0.7-1.3,1.2-2.5,1.2
		C21.7,9.9,20.3,8.3,20.3,6.3z"/>
	<path fill="#348DD9" d="M31.7,9.8V5.2c0-1.2-0.6-1.6-1.6-1.6c-0.8,0-1.6,0.5-2,1.1v5.1H27V0.2h1.1v3.7c0.5-0.6,1.4-1.2,2.5-1.2
		c1.5,0,2.2,0.7,2.2,2.2v4.9H31.7z"/>
	<path fill="#348DD9" d="M33.8,8.8l0.5-0.8c0.5,0.5,1.3,1,2.3,1c1.1,0,1.7-0.5,1.7-1.2c0-1.7-4.3-0.6-4.3-3.2c0-1.1,0.9-2,2.6-2
		c1.2,0,2,0.4,2.6,1l-0.5,0.7c-0.4-0.5-1.2-0.9-2.1-0.9c-1,0-1.5,0.5-1.5,1.1c0,1.5,4.3,0.5,4.3,3.2c0,1.2-0.9,2.1-2.7,2.1
		C35.5,9.9,34.5,9.6,33.8,8.8z"/>
	<path fill="#348DD9" d="M40.7,8.3V3.8h-1.2v-1h1.2V0.9h1.1v1.9h1.4v1h-1.4v4.3c0,0.5,0.2,0.9,0.7,0.9c0.3,0,0.6-0.1,0.7-0.3
		l0.3,0.8c-0.3,0.3-0.7,0.4-1.3,0.4C41.3,9.9,40.7,9.3,40.7,8.3z"/>
	<path fill="#348DD9" d="M43.8,6.3c0-2,1.3-3.6,3.4-3.6c2.1,0,3.4,1.6,3.4,3.6c0,2-1.3,3.7-3.4,3.7C45.1,9.9,43.8,8.3,43.8,6.3z
		 M49.5,6.3c0-1.4-0.8-2.7-2.3-2.7c-1.5,0-2.3,1.3-2.3,2.7c0,1.4,0.8,2.7,2.3,2.7C48.7,9,49.5,7.7,49.5,6.3z"/>
	<path fill="#348DD9" d="M56.6,9.8V5.2c0-1.2-0.6-1.6-1.6-1.6c-0.8,0-1.6,0.5-2.1,1.1v5.1h-1.1v-7h1.1v1c0.5-0.6,1.4-1.2,2.5-1.2
		c1.4,0,2.2,0.7,2.2,2.2v4.9H56.6z"/>
	<path fill="#348DD9" d="M58.8,6.3c0-2,1.4-3.6,3.4-3.6c2.1,0,3.3,1.6,3.3,3.7v0.3H60C60,8,61,9,62.5,9c0.8,0,1.6-0.3,2.2-0.9
		l0.5,0.7c-0.7,0.7-1.6,1.1-2.8,1.1C60.3,9.9,58.8,8.5,58.8,6.3z M62.2,3.5c-1.5,0-2.2,1.3-2.3,2.3h4.6C64.5,4.8,63.8,3.5,62.2,3.5z
		"/>
	<path fill="#348DD9" d="M65.8,8.8l0.6-0.9c0.4,0.5,1,1,1.8,1c1.2,0,1.9-0.8,1.9-2V0.2h1.2v6.7c0,2.1-1.3,3.1-3.1,3.1
		C67.3,9.9,66.5,9.6,65.8,8.8z"/>
	<path fill="#348DD9" d="M73.1,8.4l0.7-0.9c0.6,0.7,1.7,1.4,3,1.4C78.5,8.9,79,8,79,7.2c0-2.5-5.7-1.1-5.7-4.5
		c0-1.6,1.4-2.7,3.3-2.7c1.5,0,2.6,0.5,3.4,1.4l-0.7,0.9c-0.7-0.8-1.7-1.2-2.8-1.2c-1.1,0-2,0.6-2,1.5c0,2.2,5.7,0.9,5.7,4.5
		c0,1.4-1,2.8-3.5,2.8C75.1,9.9,73.8,9.3,73.1,8.4z"/>
</g>
</svg>
