<?xml version="1.0" encoding="utf-8"?>
<!-- Generator: Adobe Illustrator 18.1.0, SVG Export Plug-In . SVG Version: 6.00 Build 0)  -->
<!DOCTYPE svg PUBLIC "-//W3C//DTD SVG 1.1//EN" "http://www.w3.org/Graphics/SVG/1.1/DTD/svg11.dtd">
<svg version="1.1" id="Layer_1" xmlns="http://www.w3.org/2000/svg" xmlns:xlink="http://www.w3.org/1999/xlink" width="32" height="32" x="0px" y="0px"
	 viewBox="467.1 267.1 32 32" enable-background="new 467.1 267.1 32 32" xml:space="preserve">
<g id="Adobe" display="none">
	<g id="Ebene_1_1_" display="inline">
		<polygon points="912.1,593.8 688.6,817.4 285.3,414.1 453.8,135.6 		"/>
		<polygon points="1060.5,561.3 844.1,777.8 376.4,310 598.7,99.5 		"/>
		<text transform="matrix(1 0 0 1 304.642 412.7722)" font-family="'HelveticaNeue-Bold'" font-size="388.0812">Fl</text>
		<g>
			<path d="M722.9,38v484.9H238V38H722.9 M746.5,14.3H214.3v532.2h532.2V14.3L746.5,14.3z"/>
		</g>
	</g>
	<g id="Ebene_5" display="inline">
		<path d="M498.2,356.1c4.1,5.9,8.9,11.2,15.4,14.8c6.5,3.5,13.6,5.9,21.9,5.9c8.9,0,16.6-1.8,22.5-5.3s10.6-8.3,14.8-14.8
			c3.5-5.9,5.9-13,7.7-20.7c1.8-7.7,2.4-16,2.4-24.2c0-8.3-0.6-16-2.4-23.7c-1.8-7.7-4.1-14.2-7.7-20.1c-3.5-5.9-8.9-10.6-14.8-14.2
			c-5.9-3.5-13.6-5.3-22.5-5.3s-16.6,1.8-23.1,5.3c-5.9,3.5-11.2,8.3-14.8,14.2c-3.5,5.9-6.5,13-8.3,20.1
			c-1.8,7.7-2.4,15.4-2.4,23.7c0,7.7,1.2,15.4,3,23.1C491.1,343.1,494,350.2,498.2,356.1z M746.5,14.3v532.2H214.3V14.3H746.5z
			 M722.9,38H238v484.9h203.4L332,413.5v-0.6h60.3v-275l82.2,81.6c-7.7,5.3-14.8,11.2-20.7,18.9c-7.1,9.5-13,20.7-16.6,33.1
			s-5.9,25.4-5.9,39c0,14.2,1.8,27.2,5.9,40.2c3.5,13,9.5,24.2,16.6,34.3c7.1,10.1,16.6,17.7,28.4,23.7c11.2,5.9,24.8,8.9,39.6,8.9
			c13,0,24.8-2.4,35.5-7.1c10.6-4.7,18.9-12.4,25.4-23.7h0.6v25.4H636V136.2l86.9,87.5V38z M636,421.2L636,421.2L636,421.2
			L636,421.2L636,421.2z"/>
	</g>
	<g id="Ebene_4" display="inline">
		<path d="M430.2,203c3,5.3,4.7,12.4,4.7,21.3s-1.8,16-4.7,21.3c-3,5.3-7.1,9.5-11.8,12.4c-4.7,3-10.6,4.7-17.1,5.9
			c-6.5,1.2-13,1.8-20.1,1.8h-47.3v-82.8h47.3c7.1,0,13.6,0.6,20.1,1.8c6.5,1.2,12.4,3,17.1,5.9C423.1,193.5,427.2,197.7,430.2,203z
			 M746.5,14.3v532.2H214.3V14.3H746.5z M722.9,38H238v484.9h144.3L272.9,414.1l0.6-1.2h59.7v-99.3h64.5c17.1,0,31.9-2.4,44.4-7.7
			c11.8-4.7,21.9-11.8,29.6-20.1s13-17.7,16.6-28.4s5.3-21.9,5.3-32.5c0-11.2-1.8-22.5-5.3-33.1c-3-9.5-8.3-17.7-14.8-26l0.6-0.6
			l62.7,62.7c-3.5,3-6.5,7.1-8.9,11.2c-5.3,8.3-7.7,18.9-7.7,31.9c0,8.9,1.8,16.6,5.3,22.5c3.5,5.9,8.3,11.2,14.2,15.4
			c5.9,4.1,12.4,7.1,20.1,9.5s15.4,4.7,23.7,6.5c19.5,4.1,34.9,8.3,46.1,12.4c11.2,4.1,16.6,10.6,16.6,18.3c0,4.7-1.2,8.9-3.5,12.4
			s-5.3,5.9-8.9,7.7s-7.1,3.5-11.8,4.1c-4.1,1.2-8.3,1.2-12.4,1.2c-5.3,0-10.6-0.6-16-1.8c-5.3-1.2-9.5-3.5-13.6-5.9
			c-3.5-3-7.1-6.5-9.5-10.6c-2.4-4.1-3.5-9.5-3.5-15.4h-50.9c0.6,13.6,3.5,24.8,8.9,33.7s13,16,21.3,21.3
			c8.9,5.3,18.3,9.5,29.6,11.8s22.5,3.5,34.3,3.5c11.2,0,22.5-1.2,33.7-3.5c11.2-2.4,20.7-5.9,29-11.2c8.3-5.3,15.4-12.4,20.7-21.3
			s8.3-20.1,8.3-33.1c0-9.5-1.8-17.1-5.3-23.7c-3.5-6.5-8.3-11.8-14.2-16c-5.9-4.1-12.4-7.7-20.1-10.1c-7.7-2.4-15.4-4.7-23.7-6.5
			c-7.7-1.8-15.4-3.5-23.1-5.3c-7.7-1.8-14.2-3.5-20.1-5.3c-5.9-1.8-10.6-4.7-14.2-7.7c-3.5-3-5.3-7.1-5.3-11.8
			c0-4.1,1.2-7.7,3-10.1c1.8-2.4,4.7-4.1,7.7-5.9c3-1.2,6.5-2.4,10.1-2.4c3.5-0.6,7.1-0.6,10.1-0.6c10.1,0,18.3,1.8,25.4,5.9
			c7.1,3.5,11.2,10.6,11.8,21.3h52.6c-1.2-12.4-4.1-22.5-9.5-30.7c-3.5-5.3-7.7-10.1-13-14.2h1.8l46.7,46.7V38H722.9z"/>
	</g>
	<g id="Ebene_2" display="inline">
		<path d="M455.6,305.9h-71.6l36.1-101.7h0.6L455.6,305.9z M746.5,14.3v532.2H214.3V14.3H746.5z M722.9,38H238v484.9h156.1
			L285.3,414.1l0.6-1.2h60.3l21.9-62.1h103.5l20.7,61.5h63.3l-102.9-275l0.6-1.2L575.1,258l0,0v155.5h55V212.4h-24.2l-31.3-31.3
			l0.6-0.6v0.6h55v-44.9l1.8-1.2l91.1,90.5V38z"/>
	</g>
	<g id="Ebene_3" display="inline">
		<g>
			<path d="M238,38v484.9h156.1L285.3,414.1l0.6-1.2h60.3l21.9-62.1h103.5l20.7,61.5h63.3l-102.9-275l0.6-1.2L575.1,258l0,0v155.5
				h55V212.4h-24.2l-31.3-31.3l0.6-0.6v0.6h55v-44.9l1.8-1.2l91.1,90.5V38H238z M455.6,305.9h-71.6l36.1-101.7h0.6L455.6,305.9z"/>
		</g>
	</g>
	<path display="inline" d="M762.5,351.4v0.6V362c0,29-23.1,52-52,52H508.2v-55h64.5L480.4,255l-92.2,103.5h64.5v55H250.4
		c-29,0-52-23.1-52-52v-10.1c0-3,0-5.3,0.6-8.3c-0.6-3.5-0.6-7.1-0.6-11.2c0-51.4,42-93.4,93.4-93.4c4.7,0,8.9,0.6,13.6,1.2
		c13.6-56.2,71-93.4,131.9-93.4c55,0,102.3,31.9,125.4,78.1c10.6-3.5,21.9-5.9,33.7-5.9c39.6,0,73.9,22.5,91.1,55
		c42,0,75.7,33.7,75.7,75.7C762.5,350.8,762.5,350.8,762.5,351.4z"/>
</g>
<g id="Ebene_2_1_" display="none">
	<g display="inline">
		<g>
			<path d="M574.5,67.6v181h-181v-181H574.5z M303,550.1V7.2h361.9v482.5h-30.2v30.2h-30.2v30.2H303z M574.5,399.3h-30.2v30.2h30.2
				V399.3z M333.2,399.3h30.2v30.2h30.2v-30.2h30.2v-30.2h-30.2V339h-30.2v30.2h-30.2L333.2,399.3L333.2,399.3z M634.8,339h-30.2
				v30.2h30.2V339z M634.8,37.4H333.2v241.3h271.4v-30.2h30.2V37.4z"/>
		</g>
	</g>
</g>
<g id="Ebene_3_1_" display="none">
	<path display="inline" d="M711.7,179.9v-32.5h-32.5v-32.5V82.3h-32.5V49.8h-32.5h-32.5V16.7H549h-32.5H484h-32.5h-32.5h-33.1v32.5
		h-32.5h-32.5v32.5h-32.5v33.1v32.5h-32.5v32.5h-32.5v32.5V245v32.5V310v32.5v32.5v32.5h32.5h32.5v32.5v32.5v32.5h32.5v32.5h32.5
		h32.5h32.5h32.5h32.5h32.5h32.5H581h32.5H646v-32.5h32.5v-32.5v-32.5v-32.5h32.5h32.5v-32.5v-32.5V310v-32.5V245v-32.5v-32.5
		C744.2,179.9,711.7,179.9,711.7,179.9z M549,49.2v32.5h32.5h32.5v33.1v32.5h-32.5H549v-32.5h-32.5V82.3V49.8
		C516.5,49.2,549,49.2,549,49.2z M385.8,310v-32.5V245v-32.5h32.5v-32.5h32.5h32.5h32.5h32.5v32.5H581V245v32.5V310h-32.5v32.5
		h-32.5h-32.5h-32.5h-32.5V310H385.8z M353.3,81.7h32.5h32.5V49.2h32.5v32.5v33.1h-32.5v32.5h-32.5h-32.5v-32.5V81.7z M255.7,277.5
		V245v-32.5h32.5v-32.5h32.5h32.5v32.5V245v32.5h-32.5V310h-32.5h-32.5V277.5z M646.6,440.1v32.5h-32.5v32.5h-32.5H549h-32.5H484
		h-32.5h-32.5h-33.1h-32.5v-32.5h-32.5v-32.5v-32.5h32.5v-32.5h32.5h32.5v32.5v32.5h32.5v-32.5v-32.5h32.5h32.5v32.5v32.5h32.5
		v-32.5v-32.5H581h32.5v32.5H646L646.6,440.1L646.6,440.1z M711.7,245v32.5V310h-32.5h-32.5v-32.5h-32.5V245v-32.5v-32.5h32.5h32.5
		v32.5h32.5V245z"/>
</g>
<g id="Ebene_4_1_" display="none">
	<path display="inline" d="M711.7,179.9v-32.5h-32.5v-32.5V82.3h-32.5V49.8h-32.5h-32.5V16.7H549h-32.5H484h-32.5h-32.5h-33.1v32.5
		h-32.5h-32.5v32.5h-32.5v33.1v32.5h-32.5v32.5h-32.5v32.5V245v32.5V310v32.5v32.5v32.5h32.5h32.5v32.5v32.5v32.5h32.5v32.5h32.5
		h32.5h32.5h32.5h32.5h32.5h32.5H581h32.5H646v-32.5h32.5v-32.5v-32.5v-32.5h32.5h32.5v-32.5v-32.5V310v-32.5V245v-32.5v-32.5
		C744.2,179.9,711.7,179.9,711.7,179.9z M646.6,440.1v32.5h-32.5v32.5h-32.5H549h-32.5H484h-32.5h-32.5h-33.1h-32.5v-32.5h-32.5
		v-32.5v-32.5h32.5v-32.5h32.5h32.5v32.5v32.5h32.5v-32.5v-32.5h32.5h32.5v32.5v32.5h32.5v-32.5v-32.5H581h32.5v32.5H646
		L646.6,440.1L646.6,440.1z M711.7,342.5v32.5h-32.5h-32.5v-32.5h-32.5h-32.5H549V310h32.5v-32.5V245v-32.5H549v-32.5h-32.5H484
		h-32.5h-32.5v32.5h-33.1V245v32.5V310h32.5v32.5h-32.5h-32.5h-32.5v32.5h-32.5h-32.5v-32.5V310h32.5h32.5v-32.5h32.5V245v-32.5
		v-32.5h-32.5v-32.5v-32.5h32.5v32.5h32.5h32.5v-32.5h32.5V82.3V49.8h32.5h32.5v32.5v32.5h32.5v32.5H581h32.5v-32.5H646v32.5v32.5
		h-32.5v32.5V245v32.5H646V310h32.5h32.5L711.7,342.5L711.7,342.5z"/>
</g>
<g id="Ebene_5_1_" display="none">
	<path display="inline" d="M316,50.4h-33.1V17.3H316h33.1h33.1h33.1h33.1h31.9h33.1h33.1h33.1v33.1h-33.1h-33.1h-33.1h-33.1h-33.1
		h-33.1H348H316z M611.7,82.9V49.8h-33.1v33.1H611.7z M710.5,149.2v33.1v33.1v33.1v31.9v33.1v33.1v33.1h-33.1v33.1h-33.1v-33.1
		v-33.1h33.1v-33.1v-33.1v-33.1v-33.1v-33.1h-33.1V148h33.1h33.1v-33.1h-33.1h-33.1V81.7h-33.1v33.1V148v33.1v33.1v33.1v33.1v33.1
		v33.1v33.1v33.1H578V446v33.1h33.1V446h33.1h33.1h33.1v-33.1h33.1v-33.1v-33.1v-33.1v-33.1v-33.1v-33.1v-33.1V148h-33.1V149.2z
		 M546.1,510.5H513h-32.5h-33.1h-33.1h-33.1H348h-33.1v-33.1h-33.1v33.1v33.1h33.1H348h33.1h33.1h33.1h33.1h33.1h33.1h33.1v-33.1
		v-33.1h-33.1L546.1,510.5L546.1,510.5z M282.9,411.7h-33.1v33.1v33.1h33.1v-33.1V411.7z M250.4,346.1V313v-32.5v-33.1v-33.1v-33.1
		V148v-33.1V81.7h-33.1v33.1V148v33.1v33.1v33.1v33.1v33.1v33.1v33.1v33.1h33.1v-33.1V346.1z M282.9,50.4h-33.1v33.1h33.1V50.4z
		 M577.4,153.3v-33.1h-33.1V87.1h-33.1h-33.1H445h-33.1h-33.1h-33.1h-33.1v33.1h-33.1v33.1v33.1h33.1v33.1h33.1h33.1h33.1H445h33.1
		h33.1h33.1v-33.1h33.1V153.3L577.4,153.3z"/>
</g>
<g id="Ebene_6" display="none">
	<path display="inline" d="M436.7,39.2v43.8h-43.8h-43.8h-43.8V39.2h43.8h43.8H436.7z M436.7,83.5v43.8h43.8h43.8V83.5h-43.8H436.7z
		 M655.5,83.5v43.8h43.8V83.5H655.5z M699.2,127.3V171v43.8v43.8H743v-43.8V171v-43.8L699.2,127.3L699.2,127.3z M655.5,302.3v43.8
		v43.8v43.8v43.8h-43.8H568h-43.8h-43.8h-43.8h-43.8v43.8h43.8h43.8h43.8H568h43.8h43.8h43.8v-43.8v-43.8v-43.8v-43.8v-43.8v-43.8
		h-43.8V302.3L655.5,302.3z M261.6,127.3h43.8V83.5h-43.8V127.3z M217.3,171v43.8v43.8h44.4v-43.8V171v-43.8h-44.4V171z
		 M261.6,346.1v43.8h43.8v-43.8v-43.8v-43.8h-43.8v43.8V346.1z M480.4,389.8h-43.8v43.8h43.8h43.8H568v-43.8h-43.8H480.4z
		 M392.9,258.6v43.8h43.8v-43.8v-43.8h-43.8V258.6z M611.7,346.1H568v43.8h43.8V346.1z M568,258.6v-43.8h-43.8v43.8v43.8H568V258.6z
		 M611.7,39.2H568h-43.8v43.8H568h43.8h43.8V39.2H611.7z"/>
</g>
<g id="Ebene_7" display="none">
	<path id="hkmfda_1_" display="inline" d="M350.9,477.4c-4.7-1.2-6.5,0-9.5-1.8c-5.9-3.5-8.9-12.4-5.3-20.7
		c1.8-4.7,10.1-8.3,11.8-12.4c2.4-6.5-1.8-20.7-1.8-29.6c-0.6-33.1,3-62.1,7.7-88.7c4.1-21.9,8.9-47.9,16-71.6
		c2.4-7.1,7.1-18.9,5.3-24.2c-1.8-5.3-9.5-4.7-8.9-10.6c0.6-4.1,7.1-5.9,8.9-9.5c3-5.3,3.5-14.2,5.9-21.3
		c6.5-20.7,13.6-44.4,20.1-62.7c-2.4-4.7,1.2-10.6,1.8-17.7c0.6-5.3-0.6-12.4-1.2-19.5c-0.6-7.1,1.2-14.2-0.6-18.9
		c-1.8-4.7-6.5-8.9-5.3-14.2c13.6-8.3,37.8-6.5,56.2-10.6c0-20.7,10.1-42.6,27.2-43.2c4.7,0,8.9,3,13,3c4.7,0,8.3-1.8,12.4-1.8
		c19.5,0.6,24.2,18.9,24.8,41.4c18.3,2.4,40.2,1.2,52.6,9.5c0,4.1-4.7,7.7-5.3,11.8c-1.2,4.7,0.6,11.8,0,20.1
		c-0.6,8.3-1.8,17.1-0.6,23.1c0.6,2.4,3,4.7,3,7.1c0.6,3.5-1.8,5.3-1.2,7.7c0.6,6.5,4.7,13.6,7.1,20.7c5.3,15.4,9.5,27.2,14.2,42
		c2.4,7.7,4.1,17.1,6.5,21.3c2.4,4.1,8.9,4.1,8.9,8.9c0,5.9-7.1,5.9-8.3,10.6c-2.4,6.5,0,23.1,0,34.9c0,82.2,0,181.5,0,254.3
		c3,3.5,2.4,11.8,0,17.1c-5.3,11.2-26,16.6-42,20.1c-47.3,11.2-130.1,11.2-168.5-4.7c-8.9-3.5-20.1-10.6-20.7-20.7
		c0-3.5,1.2-5.9,1.8-9.5c1.2-8.3-0.6-18.3,0-26C368.1,488,359.2,479.7,350.9,477.4z M473.9,42.1c9.5,1.2,23.1,1.2,32.5,0
		c1.2-14.2-1.8-27.8-10.6-34.3C482.2,13.2,474.5,23.8,473.9,42.1z M374.6,259.2c-12.4,42.6-26.6,111.2-20.7,172.1
		c1.2,10.1-1.2,11.8,4.7,16c4.1,3,10.1,6.5,17.1,6.5C375.8,389.8,375.2,325.4,374.6,259.2z"/>
</g>
<g id="Ebene_8" display="none">
	<path display="inline" d="M571.5,500.4c0.6,67.4-93.4,61.5-93.4,61.5c-84,0-88.7-52.6-88.7-52.6V277.5c0-94,13.6-108.2,13.6-108.2
		C437.3,85.3,432.5,38,432.5,38h-1.2l-3.5-3l0.6-7.7c1.2-0.6,5.9-3.5,5.9-3.5c-3,0.6-8.3-1.8-8.3-1.8V9.6c0.6-1.8,4.1-4.1,4.1-4.1
		c0.6-1.8,6.5-4.7,6.5-4.7c66.2-4.1,87.5,0,87.5,0c4.1,0.6,5.9,4.1,5.9,4.1c2.4,0,4.1,3.5,4.1,3.5l-0.6,13l-7.7,1.8l2.4,2.4l3.5,2.4
		V35l-4.1,2.4c-8.3,26.6,20.7,114.7,20.7,114.7c21.9,36.7,23.1,84.6,23.1,84.6v260.8"/>
</g>
<g id="Ebene_9" display="none">
	<path display="inline" d="M512.4,17.3c7.1,5.9,4.1,21.9,6.5,32.5c43.8,1.2,52.6,31.3,64.5,68c3,10.1,6.5,20.7,9.5,30.7
		c3.5,11.2,3,24.2,6.5,33.7c4.1,11.2,17.1,18.9,19.5,35.5c2.4,15.4-4.7,43.8-4.7,63.3c-0.6,54.4-3,123.6,1.8,169.7
		c1.2,13.6,5.3,23.1,4.7,32.5c-4.7,62.7-88.7,69.8-173.3,64.5c-49.1-3-101.7-13.6-103.5-61.5c-0.6-12.4,4.7-24.2,4.7-33.7
		c2.4-70.4-3-153.7-8.3-215.2c-3.5-47.3,25.4-84.6,45.5-111.8c16-21.3,33.1-40.8,50.3-63.3c-6.5-11.2-4.1-27.8-1.8-42
		C449.7,8.4,492.9,9.6,512.4,17.3z M528.3,145c7.7,17.1,14.2,36.7,26,40.2c0.6-34.3-10.1-72.1-22.5-98.8
		C494,80.6,518.9,124.9,528.3,145z"/>
</g>
<g id="Ebene_10" display="none">
	<path display="inline" d="M757.8,351.4l-5.3-153.7H206.6l-3.5,146.7l44.9,5.9h73.3c-1.2-2.4-1.8-5.3-1.8-8.9
		c0-11.8,9.5-21.3,21.3-21.3c11.8,0,21.3,9.5,21.3,21.3c0,3-0.6,5.9-1.8,8.9h30.2c-1.2-3-1.8-5.9-1.8-8.9c0-11.8,9.5-21.3,21.3-21.3
		s21.3,9.5,21.3,21.3c0,3-0.6,5.9-1.8,8.9l198.1,1.2c-1.2-3-2.4-5.9-2.4-9.5c0-11.8,9.5-21.3,21.3-21.3s21.3,9.5,21.3,21.3
		c0,3.5-0.6,6.5-2.4,9.5H757.8z M216.1,238.5v-31.3H740v31.3v108.2h-55.6V238.5H216.1z M559.1,313h-55.6H304.2h-55.6v-49.1h424V313
		H559.1L559.1,313z M357.4,341.9c0,9.5-7.7,17.1-17.1,17.1c-9.5,0-17.1-7.7-17.1-17.1c0-9.5,7.7-17.1,17.1-17.1
		C349.8,324.8,357.4,332.5,357.4,341.9z M426.6,341.9c0,10.1-7.7,17.7-17.7,17.7c-10.1,0-17.7-7.7-17.7-17.7s7.7-17.7,17.7-17.7
		S426.6,331.9,426.6,341.9z M664.3,341.9c0,10.1-7.7,17.7-17.7,17.7s-17.7-7.7-17.7-17.7s7.7-17.7,17.7-17.7
		C656.7,324.2,664.3,331.9,664.3,341.9z"/>
</g>
<g id="Ebene_11" display="none">
	<path display="inline" d="M235.6,238.5L235.6,238.5c0,0.6,0,1.8,0,3l0,0C236.2,240.8,235.6,239.6,235.6,238.5z M473.9,100.7
		c-128.9,0-234.2,59.1-238.3,133.1C239.8,169.3,344.4,106,473.9,106s234.2,63.3,238.3,127.7C708.1,160.4,603.4,100.7,473.9,100.7z
		 M718.7,278.7c0-1.2,0-1.8,0-3c0-11.2-2.4-22.5-6.5-32.5c0-0.6,0-0.6,0-1.2c0-1.2,0-1.8,0-3c0,0,0,0,0-0.6c0,7.7-1.8,14.8-4.1,22.5
		c-1.8,14.2-1.8,31.3-7.7,41.4c-6.5,11.8-19.5,14.2-31.3,18.9c-13,4.7-18.9,8.3-26,23.1c-2.4,5.3-0.6,10.6-5.3,16.6
		c-13,15.4-23.7-3.5-40.2,3c-10.6,4.1-9.5,14.2-24.8,17.1c-7.7,1.8-16.6,0-22.5-2.4c-17.7-7.7-23.7-14.2-42.6-5.3
		c-5.9,3-18.3,17.1-23.1,17.7c-7.7,0.6-7.7-7.7-13.6-11.2c-7.7-5.3-52-1.8-54.4,10.1c-16-8.3-24.2-30.7-40.2-37.3
		c-17.7-6.5-28.4,7.1-42.6-7.1c-9.5-9.5-18.3-16-27.8-22.5c-13.6-6.5-25.4-14.2-35.5-22.5c-5.3,0.6-11.2,3-13.6,6.5
		c-10.1-20.1-22.5-41.4-21.3-65c0,0.6,0,0.6,0,1.2c-4.1,10.6-6.5,21.3-6.5,32.5c0,1.2,0,1.8,0,3s0,1.8,0,3s0,1.8,0,3
		c0,1.2,0,1.8,0,3s0,1.8,0,3s0,1.8,0,3c0,1.2,0,1.8,0,3s0,1.8,0,3s0,1.8,0,3c0,1.2,0,1.8,0,3s0,1.8,0,3s0,1.8,0,3c0,1.2,0,1.8,0,3
		s0,1.8,0,3c0,78.1,109.4,141.3,244.8,141.3s244.8-63.3,244.8-141.3c0-1.2,0-1.8,0-3s0-1.8,0-3c0-1.2,0-1.8,0-3c0-1.2,0-1.8,0-3
		s0-1.8,0-3c0-1.2,0-1.8,0-3c0-1.2,0-1.8,0-3s0-1.8,0-3c0-1.2,0-1.8,0-3c0-1.2,0-1.8,0-3s0-1.8,0-3s0-1.8,0-3
		C718.7,280.4,718.7,279.8,718.7,278.7z M712.2,234.3c0,1.2,0,3,0,4.1l0,0C712.2,236.7,712.2,235.5,712.2,234.3z M235.6,238.5
		c0-1.2,0-3,0-4.1C236.2,235.5,235.6,236.7,235.6,238.5C235.6,237.9,235.6,238.5,235.6,238.5z M379.9,265.7
		c22.5-13,56.2-20.7,94.6-20.7s72.1,8.3,94.6,20.7c10.6-6.5,18.9-13.6,23.1-21.9c2.4-4.1,3.5-8.9,3.5-13
		c0-30.7-54.4-56.2-121.2-56.2s-121.2,24.8-121.2,56.2c0,4.1,1.2,7.7,3,11.8C359.8,251.5,368.1,259.2,379.9,265.7z"/>
</g>
<g id="Ebene_12">
	<path d="M476.1,280.8L476.1,280.8C476.1,280.8,476.1,280.8,476.1,280.8C476.1,280.8,476.1,280.8,476.1,280.8z M486.9,283.7
		c0-1,0-2,0-2.9c0.5,0,1,0,1.5,0c0-0.5,0-1,0-1.5c-1,0-2.1,0-3,0c0,1,0,2,0,3c-1,0-2,0-3,0c0-1.5,0-3.1,0-4.6c-0.5,0-1,0-1.5,0
		c0,0.5,0,1,0,1.6c-1.6,0-3.1,0-4.6,0c0,0.5,0,1,0,1.5c1,0,2,0,3.1,0c0,0.5,0,1,0,1.6c0.5,0,1,0,1.5,0c0,0.5,0,0.9,0,1.4
		c-0.5,0-1,0-1.5,0c0,2.1,0,4.1,0,6.2c0.5,0,1,0,1.5,0c0-1,0-2,0-3.1c0.6,0,1,0,1.6,0c0-0.5,0-1,0-1.6c0.5,0,0.9,0,1.4,0
		c0-0.5,0-1,0-1.5c0.5,0,1,0,1.6,0c0,1,0,2,0,3c0.5,0,1,0,1.6,0c0-0.5,0-1,0-1.5c0.5,0,1,0,1.5,0c0-0.5,0-1,0-1.6
		C487.8,283.7,487.3,283.7,486.9,283.7z M485.3,279.2L485.3,279.2L485.3,279.2L485.3,279.2L485.3,279.2z M488.4,285.3L488.4,285.3
		L488.4,285.3C488.4,285.3,488.4,285.3,488.4,285.3z M499.1,267.1c0,3.5,0,7,0,10.5c-3.5,0-7.1,0-10.6,0c0-3.5,0-7,0-10.5
		C491.9,267.1,495.5,267.1,499.1,267.1z M497.5,268.5c-2.5,0-5,0-7.5,0c0,2.6,0,5.1,0,7.5c2.6,0,5.1,0,7.5,0
		C497.5,273.5,497.5,271,497.5,268.5z M467.1,288.4c3.5,0,7,0,10.5,0c0,3.5,0,7.1,0,10.7c-3.5,0-7,0-10.5,0
		C467.1,295.5,467.1,291.9,467.1,288.4z M468.5,297.5c2.6,0,5.1,0,7.6,0c0-2.5,0-5,0-7.5c-2.5,0-5,0-7.6,0
		C468.5,292.5,468.5,295,468.5,297.5z M477.6,277.6c-3.5,0-7,0-10.5,0c0-3.5,0-7,0-10.5c3.5,0,7,0,10.5,0
		C477.6,270.6,477.6,274.1,477.6,277.6z M476.1,268.5c-2.5,0-5,0-7.5,0c0,2.6,0,5.1,0,7.5c2.6,0,5.1,0,7.5,0
		C476.1,273.5,476.1,271,476.1,268.5z M480.7,291.3L480.7,291.3C480.8,291.3,480.7,291.3,480.7,291.3L480.7,291.3z M479.3,299.1
		c1,0,2,0,3,0c0-0.5,0-1,0-1.5l0,0c0,0,0,0,0,0c-0.5,0-0.9,0-1.5,0c0-0.5,0-1,0-1.6c0.5,0,1,0,1.5,0c0,0,0,0,0,0c0,0,0,0,0,0
		c0-0.5,0-1,0-1.5c0.5,0,0.9,0,1.4,0c0,0.5,0,0.9,0,1.5c-0.5,0-0.9,0-1.4,0c0,0,0,0,0,0c0,0,0,0,0,0c0,0.5,0,1,0,1.6l0,0
		c0,0,0,0,0,0c1,0,2,0,3,0c0,0.5,0,1,0,1.5c1.1,0,2.1,0,3,0c0-1,0-2,0-3.1c-0.5,0-1,0-1.6,0c0-1.6,0-3.1,0-4.6c-0.5,0-1,0-1.6,0
		c0,0.5,0,1,0,1.5c-1.6,0-3,0-4.6,0c0-0.5,0-1,0-1.5c-0.5,0-1,0-1.5,0C479.3,294,479.3,296.5,479.3,299.1z M474.7,279.2
		c-2.6,0-5.1,0-7.6,0c0,1,0,2,0,3c0.5,0,0.9,0,1.4,0c0-0.5,0-1,0-1.5c1.6,0,3.1,0,4.7,0c0,0.5,0,1,0,1.5c0.5,0,1,0,1.5,0
		c0,0.5,0,0.9,0,1.4c1,0,2,0,2.9,0c0-0.5,0-0.9,0-1.4c-0.5,0-1,0-1.5,0c0-0.5,0-1,0-1.5c-0.5,0-0.9,0-1.5,0
		C474.7,280.2,474.7,279.7,474.7,279.2z M476.1,280.8C476.1,280.8,476.1,280.8,476.1,280.8C476.1,280.8,476.1,280.8,476.1,280.8
		L476.1,280.8z M485.3,270c0.5,0,1,0,1.5,0c0-0.5,0-1,0-1.5c-1,0-2,0-3.1,0c0,1,0,2,0,3c-1.5,0-2.9,0-4.5,0c0,0.6,0,1,0,1.5
		c2,0,4,0,6,0C485.3,272,485.3,271.1,485.3,270z M496,286.9c-0.5,0-1,0-1.5,0c0,1,0,2,0,3.1c-0.5,0-1,0-1.5,0c0,0.5,0,0.9,0,1.4
		c0.5,0,1,0,1.5,0c0,0.5,0,1,0,1.5c0.5,0,1,0,1.5,0c0-0.5,0-1,0-1.6c0.6,0,1,0,1.5,0c0-1,0-2,0-2.9c-0.5,0-1,0-1.6,0
		C496,287.8,496,287.3,496,286.9z M492.9,294.4C492.9,294.4,492.9,294.4,492.9,294.4C492.9,294.4,493,294.4,492.9,294.4L492.9,294.4
		z M491.3,292.9c0-0.5,0-1,0-1.5c-1,0-2,0-2.9,0c0,0.5,0,1,0,1.5c0.5,0,1,0,1.6,0c0,0.5,0,1,0,1.5c1,0,2,0,2.9,0c0-0.5,0-1,0-1.6
		C492.3,292.9,491.9,292.9,491.3,292.9z M492.9,283.8c0.5,0,1,0,1.6,0c0,0.5,0,1,0,1.5c0.5,0,1,0,1.6,0c0-0.5,0-1,0-1.6
		c0.5,0,1,0,1.5,0c0-0.5,0-0.9,0-1.4c-1.5,0-3.1,0-4.6,0C492.9,282.8,492.9,283.2,492.9,283.8z M497.5,282.3L497.5,282.3
		C497.5,282.3,497.5,282.3,497.5,282.3C497.5,282.3,497.5,282.3,497.5,282.3C497.5,282.3,497.5,282.3,497.5,282.3L497.5,282.3z
		 M492.9,282.3C492.9,282.3,492.9,282.3,492.9,282.3C492.9,282.3,492.9,282.3,492.9,282.3L492.9,282.3z M470,285.3
		C470,285.3,470,285.3,470,285.3C470,285.3,470,285.3,470,285.3L470,285.3z M467.1,283.8c0,0.5,0,1,0,1.5c1,0,2,0,2.9,0
		c0-0.5,0-1,0-1.6c0.6,0,1,0,1.5,0c0-0.5,0-0.9,0-1.4c-1,0-2.1,0-3,0c0,0.5,0,0.9,0,1.4C467.9,283.8,467.5,283.8,467.1,283.8z
		 M468.5,282.3L468.5,282.3C468.5,282.3,468.5,282.3,468.5,282.3C468.5,282.3,468.5,282.3,468.5,282.3
		C468.5,282.3,468.5,282.3,468.5,282.3z M492.9,282.3L492.9,282.3C492.9,282.3,492.9,282.3,492.9,282.3L492.9,282.3z M491.3,280.8
		c0-0.6,0-1,0-1.5c-0.5,0-0.9,0-1.4,0c0,1.5,0,3,0,4.5c0.5,0,0.9,0,1.4,0c0-0.5,0-0.9,0-1.4c0.5,0,1,0,1.5,0c0-0.5,0-1,0-1.5
		C492.4,280.8,491.9,280.8,491.3,280.8z M470,285.3C470,285.3,470,285.3,470,285.3C470,285.3,470,285.3,470,285.3L470,285.3z
		 M474.6,286.8c0-0.5,0-1,0-1.5c-1.6,0-3.1,0-4.6,0c0,0.5,0,1,0,1.5C471.6,286.8,473.1,286.8,474.6,286.8z M496,294.4L496,294.4
		C496,294.4,496,294.4,496,294.4C496,294.4,496,294.4,496,294.4C496,294.4,496,294.4,496,294.4L496,294.4z M492.9,294.4L492.9,294.4
		C493,294.4,493,294.4,492.9,294.4C493,294.4,492.9,294.4,492.9,294.4z M493,296c0.5,0,1,0,1.6,0c0,0.5,0,1,0,1.5c0.5,0,1,0,1.5,0
		c0-1,0-2.1,0-3.1c-1,0-2,0-3,0C493,294.9,493,295.5,493,296z M492.9,288.4c0-1,0-2,0-3c-0.5,0-1,0-1.6,0c0,0.5,0,1,0,1.6
		c-0.5,0-0.9,0-1.4,0c0,0.5,0,1,0,1.5C491,288.4,491.9,288.4,492.9,288.4z M489.9,286.9L489.9,286.9
		C489.9,286.9,489.9,286.8,489.9,286.9C489.9,286.8,489.9,286.8,489.9,286.9C489.9,286.8,489.9,286.9,489.9,286.9L489.9,286.9z
		 M485.3,277.6c0.5,0,1,0,1.5,0c0-1,0-2,0-2.9c-1,0-2,0-3,0c0,0.5,0,0.9,0,1.4c0.5,0,1,0,1.6,0C485.3,276.6,485.3,277.1,485.3,277.6
		z M483.7,276.1L483.7,276.1L483.7,276.1L483.7,276.1L483.7,276.1z M482.2,268.5c-1,0-2,0-3,0c0,0.5,0,1,0,1.5c1,0,2,0,3,0
		C482.2,269.5,482.2,269,482.2,268.5z M485.3,289.9c1,0,2,0,3,0c0-0.5,0-1,0-1.5c-1,0-2,0-3,0C485.3,288.9,485.3,289.4,485.3,289.9z
		 M479.2,274.7c0,1,0,2,0,2.9c0.5,0,1,0,1.5,0c0-1,0-2,0-2.9C480.2,274.7,479.7,274.7,479.2,274.7z M480.8,277.6L480.8,277.6
		L480.8,277.6L480.8,277.6L480.8,277.6z M490,299.1c0.5,0,0.9,0,1.3,0c0-1.1,0-2.1,0-3c-0.5,0-0.9,0-1.3,0
		C490,297.1,490,298.1,490,299.1z M496,297.6C496,297.5,496,297.5,496,297.6C496,297.5,496,297.5,496,297.6
		C496,297.5,496,297.5,496,297.6C496,297.6,496,297.6,496,297.6z M497.5,299.1c0-0.5,0-1,0-1.5c-0.5,0-1,0-1.5,0c0,0.5,0,1,0,1.5
		C496.6,299.1,497,299.1,497.5,299.1z M496,292.9L496,292.9C496,292.9,496,292.9,496,292.9C496,292.9,496,292.9,496,292.9
		C496,292.9,496,292.9,496,292.9z M497.5,294.4c0-0.5,0-1,0-1.5c-0.5,0-1,0-1.5,0c0,0.5,0,1,0,1.5
		C496.5,294.4,497,294.4,497.5,294.4z M483.7,279.2c0.5,0,1,0,1.5,0c0-0.5,0-1,0-1.5c-0.5,0-1,0-1.5,0
		C483.7,278.1,483.7,278.6,483.7,279.2z M485.3,277.6L485.3,277.6L485.3,277.6L485.3,277.6L485.3,277.6z M497.6,286.8
		c0.5,0,1,0,1.5,0c0-0.5,0-1,0-1.5c-0.5,0-1,0-1.5,0C497.6,285.9,497.6,286.3,497.6,286.8z M489.9,286.8c0-0.5,0-1,0-1.6
		c-0.5,0-1,0-1.5,0c0,0.5,0,1,0,1.6C488.9,286.8,489.4,286.8,489.9,286.8z M488.4,285.3C488.4,285.3,488.4,285.3,488.4,285.3
		C488.4,285.3,488.4,285.3,488.4,285.3C488.4,285.3,488.4,285.3,488.4,285.3z M476.1,286.8c0.5,0,1,0,1.5,0c0-0.5,0-1,0-1.5
		c-0.5,0-1,0-1.5,0C476.1,285.8,476.1,286.3,476.1,286.8z M492.9,280.8L492.9,280.8C492.9,280.8,492.9,280.8,492.9,280.8
		L492.9,280.8L492.9,280.8z M494.4,279.2c-0.5,0-1,0-1.5,0c0,0.5,0,1,0,1.5c0.5,0,1,0,1.5,0C494.4,280.2,494.4,279.7,494.4,279.2z
		 M496.1,279.2c0,0.5,0,1,0,1.5c0.5,0,1,0,1.5,0c0-0.5,0-1,0-1.5C497,279.2,496.5,279.2,496.1,279.2z M497.5,280.8L497.5,280.8
		L497.5,280.8C497.6,280.8,497.6,280.8,497.5,280.8L497.5,280.8z M499.1,280.8c-0.5,0-1,0-1.5,0c0,0.5,0,1,0,1.5c0.5,0,1,0,1.5,0
		C499.1,281.7,499.1,281.3,499.1,280.8z M482.2,291.3c0-0.5,0-0.9,0-1.4c-0.5,0-1,0-1.5,0c0,0.5,0,0.9,0,1.4
		C481.3,291.3,481.8,291.3,482.2,291.3z M480.8,289.9L480.8,289.9C480.8,289.9,480.8,289.9,480.8,289.9L480.8,289.9L480.8,289.9z
		 M480.8,291.3L480.8,291.3C480.7,291.3,480.7,291.3,480.8,291.3C480.7,291.3,480.8,291.3,480.8,291.3z M483.7,276.1
		c-0.5,0-0.9,0-1.4,0c0,0.6,0,1,0,1.5c0.5,0,0.9,0,1.4,0C483.7,277.1,483.7,276.6,483.7,276.1z M482.3,277.6L482.3,277.6
		L482.3,277.6L482.3,277.6L482.3,277.6z M483.7,277.6L483.7,277.6L483.7,277.6L483.7,277.6L483.7,277.6z M496,270
		c-1.6,0-3.1,0-4.6,0c0,1.6,0,3.1,0,4.6c1.6,0,3.1,0,4.6,0C496,273.1,496,271.6,496,270z M470,296c1.5,0,3,0,4.6,0
		c0-1.6,0-3.1,0-4.6c-1.6,0-3.1,0-4.6,0C470,293,470,294.5,470,296z M474.6,270.1c-1.6,0-3.1,0-4.6,0c0,1.6,0,3,0,4.6
		c1.5,0,3,0,4.6,0C474.6,273.1,474.6,271.6,474.6,270.1z"/>
</g>
</svg>
